<svg width="240" height="240" viewBox="-60 -60 360 360" fill="none" xmlns="http://www.w3.org/2000/svg">
	<path fill-rule="evenodd" clip-rule="evenodd"
		d="M166.446 22.2517C163.548 19.2922 158.8 19.2423 155.84 22.1403C152.881 25.0384 152.831 29.7869 155.729 32.7464C168.09 45.3701 175.009 62.3372 175.001 80.0053C174.992 97.6734 168.057 114.634 155.683 127.246C152.782 130.202 152.827 134.951 155.784 137.852C158.741 140.753 163.489 140.707 166.39 137.751C181.514 122.336 189.99 101.607 190.001 80.0126C190.011 58.4183 181.555 37.6807 166.446 22.2517ZM80.0006 94.9725C83.9789 94.9725 87.7942 96.5529 90.6072 99.3659L105.001 113.759V46.1855L90.6073 60.579C87.7942 63.3921 83.9789 64.9725 80.0006 64.9725H70.0006C67.2392 64.9725 65.0006 67.211 65.0006 69.9725V89.9725C65.0006 92.734 67.2392 94.9725 70.0006 94.9725H80.0006ZM80.0006 109.973L102.93 132.901C109.229 139.201 120.001 134.739 120.001 125.83V34.1143C120.001 25.2052 109.229 20.7436 102.93 27.0433L80.0006 49.9724H70.0006C58.9549 49.9724 50.0005 58.9267 50.0005 69.9725V89.9725C50.0005 101.018 58.9549 109.973 70.0006 109.973H80.0006ZM132.919 40.1976C135.848 37.2687 140.597 37.2687 143.526 40.1976C148.749 45.4209 152.892 51.6219 155.719 58.4465C158.546 65.2711 160.001 72.5856 160.001 79.9725C160.001 87.3594 158.546 94.6739 155.719 101.499C152.892 108.323 148.749 114.524 143.526 119.747C140.597 122.676 135.848 122.676 132.919 119.747C129.99 116.818 129.99 112.07 132.919 109.141C136.749 105.31 139.788 100.763 141.861 95.7582C143.934 90.7535 145.001 85.3895 145.001 79.9725C145.001 74.5555 143.934 69.1915 141.861 64.1868C139.788 59.1821 136.749 54.6347 132.919 50.8043C129.99 47.8753 129.99 43.1266 132.919 40.1976ZM40.0005 159.999C34.4777 159.999 30.0005 164.477 30.0005 169.999V210C30.0005 215.522 34.4777 220 40.0005 220H200.001C205.524 220 210.001 215.522 210.001 210V169.999C210.001 164.477 205.524 159.999 200.001 159.999H40.0005ZM187.087 196.464C187.836 194.186 188.21 191.687 188.21 188.969C188.21 186.186 187.852 183.655 187.136 181.376C186.436 179.081 185.386 177.088 183.986 175.395C182.603 173.686 180.804 172.359 178.591 171.415C176.393 170.471 173.871 169.999 171.022 169.999C168.19 169.999 165.659 170.48 163.43 171.44C161.216 172.384 159.401 173.719 157.985 175.444C156.569 177.153 155.495 179.163 154.763 181.474C154.03 183.769 153.664 186.3 153.664 189.067C153.664 191.834 154.022 194.357 154.738 196.635C155.454 198.898 156.512 200.867 157.912 202.543C159.312 204.22 161.11 205.522 163.307 206.45C165.521 207.361 168.044 207.817 170.876 207.817C173.692 207.817 176.206 207.345 178.42 206.401C180.633 205.457 182.448 204.139 183.864 202.446C185.28 200.737 186.354 198.743 187.087 196.464ZM180.056 185.087C180.235 186.259 180.324 187.496 180.324 188.798C180.324 190.133 180.235 191.394 180.056 192.582C179.893 193.771 179.584 194.959 179.128 196.147C178.688 197.319 178.119 198.328 177.419 199.174C176.735 200.021 175.832 200.704 174.709 201.225C173.586 201.746 172.308 202.006 170.876 202.006C169.444 202.006 168.166 201.746 167.043 201.225C165.936 200.688 165.041 199.996 164.357 199.15C163.69 198.304 163.137 197.294 162.697 196.123C162.274 194.934 161.981 193.754 161.818 192.582C161.655 191.394 161.574 190.133 161.574 188.798C161.574 187.529 161.664 186.308 161.843 185.136C162.022 183.948 162.339 182.776 162.795 181.621C163.251 180.465 163.82 179.464 164.504 178.618C165.187 177.771 166.074 177.088 167.165 176.567C168.255 176.03 169.492 175.761 170.876 175.761C172.276 175.761 173.529 176.022 174.636 176.542C175.759 177.047 176.662 177.722 177.346 178.569C178.045 179.415 178.623 180.416 179.079 181.572C179.551 182.727 179.877 183.899 180.056 185.087ZM79.0621 207.06H87.7291L72.8121 170.903H63.9742L49.3257 207.06H57.065L60.1656 198.759H75.9615L79.0621 207.06ZM68.1246 176.518L73.9107 193.461H62.0699L68.1246 176.518ZM116.869 203.886C119.571 201.217 120.922 197.262 120.922 192.021V170.903H113.134V192.021C113.134 193.177 113.06 194.235 112.914 195.195C112.767 196.139 112.507 197.05 112.133 197.929C111.774 198.808 111.302 199.549 110.717 200.151C110.131 200.737 109.357 201.209 108.397 201.567C107.453 201.925 106.363 202.104 105.126 202.104C103.872 202.104 102.774 201.933 101.83 201.591C100.902 201.25 100.145 200.794 99.5592 200.224C98.9896 199.654 98.5257 198.938 98.1676 198.076C97.8096 197.213 97.5654 196.318 97.4352 195.39C97.305 194.462 97.2399 193.404 97.2399 192.216V170.903H89.1832V191.801C89.1832 193.933 89.3053 195.74 89.5495 197.221C89.7936 198.686 90.3226 200.135 91.1364 201.567C93.5615 205.766 98.1595 207.866 104.93 207.866C110.204 207.866 114.183 206.539 116.869 203.886ZM154.187 176.664H142.884V207.06H135.022V176.664H123.718V170.903H154.187V176.664Z"
		fill="white" />
</svg>